<svg xmlns="http://www.w3.org/2000/svg" xmlns:xlink="http://www.w3.org/1999/xlink" viewBox="0 0 385.99 298.67"><defs><style>.cls-1{fill:none;}.cls-2,.cls-3{fill:#173d7a;}.cls-2{opacity:0.5;}.cls-4{fill:#d4ecff;}.cls-5{fill:#396caa;}.cls-6{fill:#5793ce;}.cls-7{fill:#ffc2b0;}.cls-8{fill:#fff;}.cls-9{fill:#ea9c92;}.cls-10{fill:#ff2c9c;}.cls-11{fill:#d3008d;}.cls-12{clip-path:url(#clip-path);}</style><clipPath id="clip-path"><ellipse class="cls-1" cx="143.56" cy="153.1" rx="36.88" ry="63.88" transform="translate(-57.32 92.3) rotate(-30)"/></clipPath></defs><title>invite_2</title><g id="Layer_2" data-name="Layer 2"><g id="_ÎÓÈ_1" data-name="—ÎÓÈ_1"><path class="cls-2" d="M132.53,298,89.37,273c-1.84-1.06-1.61-2.91.52-4.14h0a8,8,0,0,1,7.17-.3l43.16,24.92c1.84,1.06,1.61,2.92-.51,4.14h0A8,8,0,0,1,132.53,298Z"/><ellipse class="cls-2" cx="339.62" cy="126.68" rx="18.88" ry="10.9"/><path class="cls-3" d="M340.73,120.93c-.21.53-3.85,4.95-7.48,6.06a8.42,8.42,0,0,1-3.34.46A1.11,1.11,0,0,1,329,126a13.8,13.8,0,0,1,7-7.68C342.15,115.25,340.73,120.93,340.73,120.93Z"/><path class="cls-3" d="M341.94,122.63a29.92,29.92,0,0,0-1.79,5.9c-.26,1.64.64,3.76,1.38,5.17a1.51,1.51,0,0,0,2.35.41,8.74,8.74,0,0,0,2.95-5.63c.42-4.53,0-5.32,0-5.32Z"/><path class="cls-4" d="M350.69,67.91a86.82,86.82,0,0,1,0,12c-.48,6.32-2.17,35.86-2.49,43,0,0,.16,2.15-4,1.68s-3.83-2.87-3.83-2.87-5.85-.08-6-3.52-6-41.18-6-54.75Z"/><path class="cls-5" d="M340.36,121.72a12.18,12.18,0,0,1-1.67-.17h0l-1.14-45.93Z"/><path class="cls-6" d="M344.5,26c9.45,3.92,9.26,9.51,9.26,9.51S351.91,56,352.54,69.67c.27,5.71-30.38,6.15-25.81-9.1,5.39-18,3.37-32.55,5.89-34.75S342.06,25,344.5,26Z"/><ellipse class="cls-7" cx="342.82" cy="29.74" rx="3.59" ry="4.87" transform="translate(228.5 354.31) rotate(-75.55)"/><path class="cls-8" d="M343.54,34a7.15,7.15,0,0,1-1.76-.23c-2.92-.75-4.83-3.18-4.25-5.41a3.72,3.72,0,0,1,2.36-2.51,6.77,6.77,0,0,1,7.36,1.9,3.55,3.55,0,0,1-1.5,5.84A6,6,0,0,1,343.54,34Zm-1.44-7.37a4.6,4.6,0,0,0-1.76.33,2.58,2.58,0,0,0-1.66,1.69c-.42,1.6,1.11,3.38,3.39,4a5.26,5.26,0,0,0,3.23-.13,2.61,2.61,0,0,0,1.67-1.7h0a2.61,2.61,0,0,0-.64-2.29,5.25,5.25,0,0,0-2.76-1.68A6.31,6.31,0,0,0,342.1,26.65Z"/><path class="cls-7" d="M340.71,25.58a23.73,23.73,0,0,1-.08,3.37c-.05.94,3.24,1.82,4.1,1s.51-1.74.71-4.94S340.71,25.58,340.71,25.58Z"/><path class="cls-9" d="M345.44,25s-.81,3-4.81,4.11l.06-2.7Z"/><circle class="cls-7" cx="340.93" cy="19.25" r="7.27"/><path class="cls-9" d="M342.61,19.52s-4,1.71-6.78,1.73-2.16-2.3-2.16-2.3l8.23-1.19Z"/><path class="cls-10" d="M335,20a13,13,0,0,1,6.55-.86,3.17,3.17,0,0,1,1.85,1.1,1.1,1.1,0,0,0,.56.4c.54.12,1.43-2.13,2.49-2.18s1.75.7.89,2.08-.57,2.94-.18,3.16,4.62-3,.9-10.39-13.18-3.4-14.65-1.91c0,0-1.55,1.35-2.81.15C330.6,11.52,329.18,22.1,335,20Z"/><path class="cls-7" d="M328,24.33l-5.08-2.19a2.28,2.28,0,0,1-1.24-1.34l-5-14.54-2.32.4,4.05,18.1a3,3,0,0,0,1.49,2l8.46,4.76Z"/><path class="cls-7" d="M380.87,26.69l1.17-.53a9.32,9.32,0,0,0,2.67-1.85l.82-.8a1.59,1.59,0,0,0,.34-1.73h0a.86.86,0,0,0-1.19-.44l-2.44,1.23s.39-1.08.2-1.36-2.07,1.8-2.94,3.28S380.87,26.69,380.87,26.69Z"/><path class="cls-7" d="M360.59,32.51l4.35-.49a7.54,7.54,0,0,0,2.92-.94l11.64-6.59,1.37,2.2L369,35.88a5.58,5.58,0,0,1-1.2.71l-7.1,3Z"/><path class="cls-7" d="M314.34,6.66l-.45-.51a4.06,4.06,0,0,1-.95-2.08L312.63,2a1.81,1.81,0,0,1,.7-1.73l.06,0A1.1,1.1,0,0,1,315,.7l1,2.53s-.33-1.31.09-1.45.9,1.51.55,2.42a3.89,3.89,0,0,0,0,2.06Z"/><path class="cls-8" d="M338.05,24.26l-1.88-.52a4.55,4.55,0,0,0,2.21,1.77c1.31.36,1.51-.74,1.51-.74Z"/><path class="cls-6" d="M335.23,24.78s-8.49-1.68-11.08-2.47-3.67,6.34-3.48,8.14,9,3.82,10.08,6.91S335.23,24.78,335.23,24.78Z"/><path class="cls-6" d="M348.21,27.9a66.73,66.73,0,0,0,16.59,4,1.12,1.12,0,0,1,.92.74,12.32,12.32,0,0,1,.55,6.24,2.29,2.29,0,0,1-2.27,1.8c-3.25,0-10.24.29-11.38,3.33C351.13,48,348.21,27.9,348.21,27.9Z"/><path class="cls-8" d="M344.56,33.5l-1.7,1.85a1.1,1.1,0,0,0-.29.88l1.17,10.12a1.11,1.11,0,0,1-.22.79l-3.66,4.79a.33.33,0,0,1-.58-.1l-2-6.27a1.14,1.14,0,0,1,0-.73l3.51-9.18a1.23,1.23,0,0,0,.05-.63l-.52-2.44Z"/><path class="cls-5" d="M363.14,38.76c-1.85.21-6.41.61-9.92.9a3.22,3.22,0,0,0-2.83,4.05c1.87,7.18-.61,18.71-.16,22.62.53,4.67-2.3,6.47-2.31,6.48,2.79-.6,4.69-1.71,4.62-3.14a262.09,262.09,0,0,1,.64-26.58c2-2.22,8-2.47,10.86-2.45a2.27,2.27,0,0,0,2.24-1.86,11,11,0,0,0,0-3.78C366.32,35.07,366.31,38.39,363.14,38.76Z"/><path class="cls-2" d="M33,229.49c7.38,4.26,19.33,4.26,26.71,0s7.37-11.16,0-15.41-19.33-4.26-26.71,0S25.65,225.24,33,229.49Z"/><path class="cls-3" d="M45.27,216c.21.53,3.84,5,7.47,6.05a8.29,8.29,0,0,0,3.34.47,1.1,1.1,0,0,0,.89-1.47,13.77,13.77,0,0,0-7-7.68C43.85,210.36,45.27,216,45.27,216Z"/><path class="cls-3" d="M44.06,217.74a29.92,29.92,0,0,1,1.79,5.9c.25,1.63-.65,3.76-1.39,5.17a1.51,1.51,0,0,1-2.35.41,8.74,8.74,0,0,1-3-5.64c-.42-4.52,0-5.31,0-5.31Z"/><path class="cls-4" d="M35.31,163a85,85,0,0,0,0,12c.47,6.31,2.17,35.86,2.48,43,0,0-.16,2.16,4,1.68s3.83-2.86,3.83-2.86,5.85-.08,6-3.53,6-41.17,6-54.74Z"/><path class="cls-5" d="M45.63,216.83a12.18,12.18,0,0,0,1.67-.17h0l1.15-45.93Z"/><path class="cls-6" d="M41.49,121.11c-9.45,3.92-9.26,9.51-9.26,9.51s1.85,20.48,1.22,34.15c-.26,5.72,30.38,6.16,25.81-9.1-5.39-18-3.37-32.54-5.89-34.74S43.94,120.1,41.49,121.11Z"/><ellipse class="cls-7" cx="43.17" cy="124.85" rx="4.87" ry="3.59" transform="translate(-29.78 14.72) rotate(-14.45)"/><path class="cls-8" d="M42.48,129.12c-2.24,0-4.14-1.12-4.6-2.91h0c-.58-2.23,1.33-4.66,4.25-5.41s5.76.45,6.34,2.69-1.34,4.66-4.25,5.41A7.09,7.09,0,0,1,42.48,129.12ZM39,125.92c.41,1.6,2.6,2.42,4.89,1.83s3.81-2.37,3.4-4-2.61-2.41-4.89-1.83-3.81,2.37-3.4,4Z"/><path class="cls-7" d="M45.28,120.69a23.67,23.67,0,0,0,.08,3.37c.06.94-3.24,1.82-4.09,1s-.51-1.74-.72-4.94S45.28,120.69,45.28,120.69Z"/><path class="cls-9" d="M40.55,120.09s.81,3,4.81,4.11l-.06-2.7Z"/><circle class="cls-7" cx="45.06" cy="114.36" r="7.27" transform="translate(-51.81 38.7) rotate(-30.5)"/><path class="cls-9" d="M43.39,114.63a22.54,22.54,0,0,0,6.78,1.73c2.77,0,2.16-2.3,2.16-2.3l-8.23-1.19Z"/><path class="cls-10" d="M51,115.08a13.06,13.06,0,0,0-6.55-.87,3.25,3.25,0,0,0-1.85,1.1,1.07,1.07,0,0,1-.56.41c-.54.12-1.43-2.13-2.48-2.18s-1.76.69-.9,2.08.58,2.93.18,3.16-4.62-3-.9-10.39,13.19-3.41,14.66-1.91c0,0,1.55,1.35,2.81.15C55.4,106.63,56.81,117.21,51,115.08Z"/><path class="cls-7" d="M58,119.43l5.08-2.19a2.2,2.2,0,0,0,1.24-1.33l5-14.54,2.33.4-4.06,18.1a3.06,3.06,0,0,1-1.48,2l-8.46,4.75Z"/><path class="cls-7" d="M5.12,121.8,4,121.27a9.58,9.58,0,0,1-2.68-1.85l-.81-.8a1.57,1.57,0,0,1-.35-1.73h0a.86.86,0,0,1,1.19-.44l2.44,1.23s-.38-1.08-.2-1.36,2.07,1.8,2.94,3.27S5.12,121.8,5.12,121.8Z"/><path class="cls-7" d="M25.4,127.62l-4.34-.49a7.75,7.75,0,0,1-2.93-.94l-11.64-6.6L5.12,121.8,17,131a5.1,5.1,0,0,0,1.19.7l7.1,3Z"/><path class="cls-7" d="M71.66,101.77l.44-.51a4.06,4.06,0,0,0,1-2.08l.31-2.12a1.82,1.82,0,0,0-.69-1.73l-.06,0a1.1,1.1,0,0,0-1.61.52l-1,2.53s.33-1.31-.09-1.46-.9,1.52-.55,2.42a3.81,3.81,0,0,1,0,2.07Z"/><path class="cls-8" d="M47.94,119.37l1.88-.52a4.5,4.5,0,0,1-2.2,1.77c-1.31.36-1.52-.75-1.52-.75Z"/><path class="cls-6" d="M50.76,119.89s8.49-1.68,11.08-2.47,3.68,6.33,3.48,8.14-9,3.82-10.07,6.91S50.76,119.89,50.76,119.89Z"/><path class="cls-6" d="M37.78,123a67.1,67.1,0,0,1-16.58,4,1.11,1.11,0,0,0-.93.73,12.35,12.35,0,0,0-.55,6.25,2.3,2.3,0,0,0,2.27,1.8c3.25,0,10.25.29,11.38,3.33C34.86,143.06,37.78,123,37.78,123Z"/><path class="cls-8" d="M41.43,128.61l1.7,1.85a1.1,1.1,0,0,1,.29.88l-1.17,10.12a1.13,1.13,0,0,0,.22.79L46.13,147a.33.33,0,0,0,.58-.1l2-6.27a1.08,1.08,0,0,0,0-.73l-3.5-9.18a1,1,0,0,1,0-.63l.51-2.44Z"/><path class="cls-5" d="M22.85,133.87c1.86.21,6.41.61,9.92.9a3.21,3.21,0,0,1,2.83,4c-1.86,7.18.61,18.71.16,22.61-.53,4.67,2.3,6.48,2.31,6.49-2.79-.6-4.69-1.71-4.62-3.15a262,262,0,0,0-.64-26.57c-2-2.23-8-2.47-10.85-2.45a2.28,2.28,0,0,1-2.25-1.86,10.69,10.69,0,0,1,0-3.78C19.68,130.18,19.68,133.5,22.85,133.87Z"/><path class="cls-11" d="M137.19,240.44,92.37,214.56a2.3,2.3,0,0,0-2.31-.19v0l-4.35,2.51L88.77,218v32.64c0,2.66,1.61,5.74,3.6,6.89l42.84,24.74v3.83l4.4-2.53h0a3.2,3.2,0,0,0,1.22-2.87V247.33C140.8,244.67,139.19,241.59,137.19,240.44Z"/><path class="cls-10" d="M132.77,285.93,88,260.06c-2-1.15-3.61-4.24-3.61-6.89V219.84c0-2.66,1.61-3.88,3.61-2.73L132.77,243c2,1.15,3.6,4.23,3.6,6.89v33.33C136.37,285.86,134.76,287.08,132.77,285.93Z"/><path class="cls-8" d="M133.87,242.2,89.05,216.32a2.11,2.11,0,0,0-3,.43,2.6,2.6,0,0,1,1.92.36L132.77,243c2,1.15,3.6,4.23,3.6,6.89v33.33a4.05,4.05,0,0,1-.59,2.29c1-.27,1.69-1.37,1.69-3.09V249.09C137.47,246.43,135.86,243.35,133.87,242.2Z"/><path class="cls-8" d="M103,248.57c0,1.93-1.35,2.71-3,1.75a6.69,6.69,0,0,1-3-5.24c0-1.93,1.35-2.71,3-1.75A6.67,6.67,0,0,1,103,248.57Z"/><path class="cls-8" d="M112.18,253.86c0,1.93-1.35,2.71-3,1.75a6.7,6.7,0,0,1-3-5.24c0-1.93,1.36-2.71,3-1.75A6.69,6.69,0,0,1,112.18,253.86Z"/><path class="cls-8" d="M121.34,259.15c0,1.93-1.35,2.71-3,1.75a6.7,6.7,0,0,1-3-5.24c0-1.93,1.36-2.71,3-1.75A6.69,6.69,0,0,1,121.34,259.15Z"/><path class="cls-2" d="M211.84,256.46l66.93-38.64c7.25-4.19,6.34-11.49-2-16.32h0c-8.37-4.83-21-5.36-28.27-1.18L181.54,239c-7.24,4.18-6.33,11.49,2,16.32h0C191.94,260.12,204.59,260.64,211.84,256.46Z"/><path class="cls-6" d="M250.13,185.15l0-8.53,10.1-50.87-10-6.16-20,11-.14,65.56c0,4.41,1.64,7.4,4.18,8.37h0l8.88,5.59,1.12-4.23,1.53-7.69A24.31,24.31,0,0,0,250.13,185.15Z"/><path class="cls-6" d="M250.09,209.94h0c-5.52,3.05-10-.36-10-7.6l.14-65.56,20-11-.14,65.56C260.09,198.56,255.61,206.89,250.09,209.94Z"/><ellipse class="cls-10" cx="277.92" cy="75.38" rx="21.31" ry="36.9" transform="translate(-0.45 149.07) rotate(-30)"/><polygon class="cls-10" points="296.63 107.18 220.69 150.73 179.87 89.41 258.98 43.72 296.63 107.18"/><path class="cls-4" d="M266.76,112.67c0-17.12-12-37.93-26.84-46.49-6.73-3.89-12.88-4.57-17.6-2.56h0l-.1,0-.12.06c-.21.09-.41.19-.61.3a188,188,0,0,1-90.26,19.14l-8.84-.34,72,123.36,3.9-7.53a188,188,0,0,1,60.49-68.54C263.7,127.34,266.76,121.3,266.76,112.67Z"/><path class="cls-4" d="M202.78,178.3c0-32.83-23.05-72.75-51.49-89.17-14.18-8.19-27-9-36.33-3.65h0l0,0-.07,0-8.45,5,3-.61c-6,6.25-9.54,16.11-9.54,29,0,32.84,23,72.76,51.48,89.18,11.16,6.44,21.49,8.3,29.92,6.21l-1.34,2,7.78-4.55.12-.07.28-.16h0C197.16,206,202.78,194.52,202.78,178.3Z"/><path class="cls-8" d="M196.75,181.82c0-32.83-23.05-72.76-51.48-89.17-14-8.08-26.68-9-36-3.86l-1.29.76c-.44.28-.87.57-1.29.88l2.62-.54c-6,6.25-9.54,16.11-9.54,29,0,32.84,23,72.76,51.48,89.18,11.16,6.44,21.49,8.3,29.92,6.21L180,216C190.29,211.11,196.75,199.2,196.75,181.82Z"/><ellipse class="cls-6" cx="143.56" cy="153.1" rx="42.04" ry="72.81" transform="matrix(0.87, -0.5, 0.5, 0.87, -57.32, 92.3)"/><ellipse class="cls-3" cx="143.56" cy="153.1" rx="36.88" ry="63.88" transform="translate(-57.32 92.3) rotate(-30)"/><path class="cls-8" d="M145.67,204.35c-24.95-14.4-45.17-49.43-45.17-78.23,0-15.13,5.58-25.53,14.49-29.91-10.13,3.71-16.6,14.52-16.6,30.81,0,28.81,20.22,63.83,45.17,78.24,11.85,6.84,22.63,7.79,30.68,3.83C166.46,211.94,156.51,210.61,145.67,204.35Z"/><g class="cls-12"><polygon class="cls-4" points="136.8 142.3 202.34 91.62 226.14 132.91 149.21 164.48 136.8 142.3"/><ellipse class="cls-6" cx="143.56" cy="153.1" rx="7.37" ry="12.76" transform="translate(-57.32 92.3) rotate(-30)"/></g><path class="cls-8" d="M235.31,185.71l-.35-.2a5.69,5.69,0,0,1-2.39-4.52l0-12.64c0-1.75,1.05-2.55,2.36-1.8l.36.2a5.69,5.69,0,0,1,2.38,4.52l0,12.65C237.68,185.66,236.62,186.47,235.31,185.71Z"/><path class="cls-2" d="M336.8,281.31c-8.18,4.72-21.44,4.72-29.62,0s-8.18-12.38,0-17.11,21.44-4.72,29.62,0S345,276.58,336.8,281.31Z"/><path class="cls-3" d="M334.82,266.35a4,4,0,0,1,2.26,4,6.9,6.9,0,0,1-.33,2,3.3,3.3,0,0,1-4.42,1.35c-2.43-1-7.82-6-8-9.34C323.93,258.14,331,264.71,334.82,266.35Z"/><path class="cls-3" d="M320.55,276.54s.58,3.55.3,4.2a4.57,4.57,0,0,1-4.47,1.74c-2.5-.3-9.68-2.77-11.28-7.51-2.48-7.34,13.87.55,13.87.55Z"/><path class="cls-4" d="M313.53,219.74,313,275.2a3.9,3.9,0,0,0,3,3.85l.68.08a3.44,3.44,0,0,0,3.3-1.36,4.13,4.13,0,0,0,.74-2.24l.7-23.67L325,230.69l4.89,37.46a3.24,3.24,0,0,0,1.34,2.47,3.72,3.72,0,0,0,2.23.6,4.09,4.09,0,0,0,3-1.46,2.93,2.93,0,0,0,.71-2l-1.94-22.54-.72-28.76Z"/><path class="cls-7" d="M320.71,170.09l.88,5.06a2.32,2.32,0,0,1-1.89,2.2c-1.93.48-2.52-.76-2.52-.76l-.87-5.7Z"/><path class="cls-7" d="M310.1,167.33c1.37,4.33,5.6,6.84,9.45,5.61s5.86-5.74,4.5-10.07-5.6-6.84-9.45-5.61S308.73,163,310.1,167.33Z"/><path class="cls-6" d="M320.48,175.24c.14-.05,8.17-5.23,11.14.19,4.85,8.83,1.3,18.95,3,40.92.29,3.68-4.95,5.92-7.42,7.34a14.84,14.84,0,0,1-7.21,2.05c-2.51,0-7.33-2.21-7.15-5.5.8-15.09-.53-27.82-1.77-40.17C311.1,180.07,312.64,178.41,320.48,175.24Z"/><path class="cls-5" d="M325,230.69l4.89,37.46a3.24,3.24,0,0,0,1.34,2.47l.42.24c-1-.77-4-32.21-4.53-35.71S325,230.69,325,230.69Z"/><polygon class="cls-7" points="294.43 179.81 287.7 166.46 289.81 165.13 296.78 175.3 294.43 179.81"/><polygon class="cls-7" points="338.8 165.64 335.53 150.75 332.92 150.78 333.9 163.12 338.8 165.64"/><path class="cls-6" d="M311.1,180.07s-7.52,3-14-5.18A1.23,1.23,0,0,0,295,175c-.58,1.34-1.31,3.36-.43,5.25,3.91,8.39,17.24,8.1,20.45,12.8S311.1,180.07,311.1,180.07Z"/><path class="cls-6" d="M325.58,173.39s6.21.47,7.11-4.9a40,40,0,0,0,.62-5.38,1.08,1.08,0,0,1,1.22-1.05c1.49.18,3.79.62,4.1,1.62.47,1.49,1.35,8.79-4.79,20C329.82,191,325.58,173.39,325.58,173.39Z"/><path class="cls-7" d="M335.54,150.78l-.06-1.69a3.5,3.5,0,0,0-.5-1.7l-1.73-2.83-.44-.56a1.31,1.31,0,0,0-1.72-.29l-.4.24a1.66,1.66,0,0,0-.76,1.48l.89,2.42-1.12-.22a.4.4,0,0,0-.47.32h0a.42.42,0,0,0,.24.45l1.84.74L333,151.5Z"/><path class="cls-7" d="M287.65,166.55l-.79-1.51a3.53,3.53,0,0,1-.39-1.72l.1-3.31.11-.71a1.31,1.31,0,0,1,1.35-1.11l.47,0a1.63,1.63,0,0,1,1.38.91l.42,2.54.88-.74a.38.38,0,0,1,.56.05h0a.39.39,0,0,1,0,.5L290.52,163l-.32,3.24Z"/><path class="cls-5" d="M316,191.39c.65,3-3.29,25.47,1.09,33.7-2.19-.89-4.35-2.63-4.23-4.85a206.51,206.51,0,0,0-.74-29.47c-3.75-1.9-9.6-3-13.74-6.07C302.83,186.34,315.43,188.72,316,191.39Z"/><path class="cls-8" d="M323.37,173.81l-1.11-1.14a9.2,9.2,0,0,1-3.31,2.2,17.19,17.19,0,0,1-2.64.54l-.72,2S321.43,177,323.37,173.81Z"/><path class="cls-10" d="M315.34,167.46a.94.94,0,0,1-.77-.4c-.3-.44-.11-2.47-1.05-2.81-1.47-.52-4.95,1.32-5.33-4-.19-2.76,1.15-3.49,1.15-5,0,0-.12.76,7,.29s9.39,5.82,9.56,8.82-1.28,7.93-6.13,8.6c-.8.12-4.18-2.6-4.09-2.95s1.36-.34,1.18-1.37A1.34,1.34,0,0,0,315.34,167.46Z"/></g></g></svg>